<svg width="44" height="44" viewBox="0 0 44 44" fill="none" xmlns="http://www.w3.org/2000/svg">
<path d="M22.0628 0.744446C10.1864 0.744446 0.558533 10.3723 0.558533 22.2487C0.558533 32.3333 7.50182 40.7956 16.8682 43.1198V28.8204H12.434V22.2487H16.8682V19.417C16.8682 12.0978 20.1807 8.70531 27.3666 8.70531C28.7291 8.70531 31.0799 8.97282 32.0416 9.23948V15.1961C31.5341 15.1428 30.6524 15.1162 29.5574 15.1162C26.0316 15.1162 24.6691 16.452 24.6691 19.9245V22.2487H31.6932L30.4864 28.8204H24.6691V43.5955C35.3171 42.3095 43.5678 33.2434 43.5678 22.2487C43.567 10.3723 33.9391 0.744446 22.0628 0.744446Z" fill="white"/>
</svg>
