<svg width="44" height="44" viewBox="0 0 44 44" fill="none" xmlns="http://www.w3.org/2000/svg">
<g clip-path="url(#clip0_1_974)">
<path d="M22.0797 4.61689C27.8253 4.61689 28.5057 4.64209 30.7654 4.74289C32.8654 4.83529 33.9994 5.18809 34.7554 5.4821C35.755 5.8685 36.4774 6.33891 37.225 7.08651C37.981 7.84252 38.443 8.55653 38.8294 9.55614C39.1235 10.3121 39.4763 11.4546 39.5687 13.5462C39.6695 15.8142 39.6947 16.4946 39.6947 22.2319C39.6947 27.9775 39.6695 28.6579 39.5687 30.9176C39.4763 33.0176 39.1235 34.1516 38.8294 34.9076C38.443 35.9072 37.9726 36.6296 37.225 37.3772C36.469 38.1332 35.755 38.5952 34.7554 38.9817C33.9994 39.2757 32.857 39.6285 30.7654 39.7209C28.4973 39.8217 27.8169 39.8469 22.0797 39.8469C16.334 39.8469 15.6536 39.8217 13.394 39.7209C11.294 39.6285 10.1599 39.2757 9.40393 38.9817C8.40432 38.5952 7.68191 38.1248 6.93431 37.3772C6.1783 36.6212 5.71629 35.9072 5.32989 34.9076C5.03589 34.1516 4.68308 33.0092 4.59068 30.9176C4.48988 28.6495 4.46468 27.9691 4.46468 22.2319C4.46468 16.4862 4.48988 15.8058 4.59068 13.5462C4.68308 11.4462 5.03589 10.3121 5.32989 9.55614C5.71629 8.55653 6.1867 7.83412 6.93431 7.08651C7.69032 6.3305 8.40432 5.8685 9.40393 5.4821C10.1599 5.18809 11.3024 4.83529 13.394 4.74289C15.6536 4.64209 16.334 4.61689 22.0797 4.61689ZM22.0797 0.744446C16.2416 0.744446 15.5108 0.769646 13.2176 0.870447C10.9327 0.971248 9.36193 1.34085 8.00112 1.87006C6.5815 2.42446 5.38029 3.15527 4.18748 4.35648C2.98627 5.5493 2.25546 6.75051 1.70105 8.16173C1.17185 9.53094 0.802242 11.0934 0.701441 13.3782C0.60064 15.6798 0.575439 16.4106 0.575439 22.2487C0.575439 28.0867 0.60064 28.8175 0.701441 31.1108C0.802242 33.3956 1.17185 34.9664 1.70105 36.3272C2.25546 37.7468 2.98627 38.9481 4.18748 40.1409C5.38029 41.3337 6.5815 42.0729 7.99272 42.6189C9.36193 43.1481 10.9243 43.5177 13.2092 43.6185C15.5024 43.7193 16.2332 43.7445 22.0713 43.7445C27.9093 43.7445 28.6401 43.7193 30.9334 43.6185C33.2182 43.5177 34.789 43.1481 36.1498 42.6189C37.561 42.0729 38.7622 41.3337 39.9551 40.1409C41.1479 38.9481 41.8871 37.7468 42.4331 36.3356C42.9623 34.9664 43.3319 33.404 43.4327 31.1192C43.5335 28.8259 43.5587 28.0951 43.5587 22.2571C43.5587 16.419 43.5335 15.6882 43.4327 13.395C43.3319 11.1102 42.9623 9.53934 42.4331 8.17852C41.9039 6.75051 41.1731 5.5493 39.9719 4.35648C38.779 3.16367 37.5778 2.42446 36.1666 1.87846C34.7974 1.34925 33.235 0.979648 30.9502 0.878847C28.6485 0.769646 27.9177 0.744446 22.0797 0.744446Z" fill="white"/>
<path d="M22.0797 11.2026C15.9812 11.2026 11.0336 16.1502 11.0336 22.2487C11.0336 28.3472 15.9812 33.2948 22.0797 33.2948C28.1781 33.2948 33.1258 28.3472 33.1258 22.2487C33.1258 16.1502 28.1781 11.2026 22.0797 11.2026ZM22.0797 29.414C18.1232 29.414 14.9144 26.2051 14.9144 22.2487C14.9144 18.2923 18.1232 15.0834 22.0797 15.0834C26.0361 15.0834 29.245 18.2923 29.245 22.2487C29.245 26.2051 26.0361 29.414 22.0797 29.414Z" fill="white"/>
<path d="M36.1414 10.7657C36.1414 12.1937 34.9822 13.3445 33.5626 13.3445C32.1346 13.3445 30.9838 12.1853 30.9838 10.7657C30.9838 9.33764 32.143 8.18683 33.5626 8.18683C34.9822 8.18683 36.1414 9.34604 36.1414 10.7657Z" fill="white"/>
</g>
<defs>
<clipPath id="clip0_1_974">
<rect width="43.0085" height="43.0085" fill="white" transform="translate(0.575439 0.744446)"/>
</clipPath>
</defs>
</svg>
