<svg width="50" height="51" viewBox="0 0 50 51" fill="none" xmlns="http://www.w3.org/2000/svg">
<rect x="1.10083" y="1.16888" width="47.5585" height="48.6621" rx="23.7793" stroke="white" stroke-linejoin="round"/>
<path fill-rule="evenodd" clip-rule="evenodd" d="M33.3411 22.0052C35.9823 22.0052 38.1234 19.9465 38.1234 17.4069C38.1234 14.8673 35.9823 12.8085 33.3411 12.8085C30.6999 12.8085 28.5588 14.8673 28.5588 17.4069C28.5588 17.9205 28.6464 18.4145 28.808 18.8758L18.1532 23.9983C17.2908 22.7944 15.8472 22.0052 14.212 22.0052C11.5708 22.0052 9.42969 24.064 9.42969 26.6036C9.42969 29.1432 11.5708 31.2019 14.212 31.2019C15.6514 31.2019 16.9422 30.5905 17.8189 29.623L28.6639 34.8369C28.5951 35.1476 28.5588 35.4698 28.5588 35.8003C28.5588 38.3399 30.6999 40.3986 33.3411 40.3986C35.9823 40.3986 38.1234 38.3399 38.1234 35.8003C38.1234 33.2607 35.9823 31.2019 33.3411 31.2019C31.9017 31.2019 30.6108 31.8134 29.7341 32.7809L18.8891 27.5669C18.958 27.2563 18.9942 26.934 18.9942 26.6036C18.9942 26.4588 18.9873 26.3157 18.9737 26.1744L30.1272 20.8121C30.9763 21.5534 32.1038 22.0052 33.3411 22.0052ZM33.3411 19.7061C34.6617 19.7061 35.7322 18.6767 35.7322 17.4069C35.7322 16.1371 34.6617 15.1077 33.3411 15.1077C32.0205 15.1077 30.9499 16.1371 30.9499 17.4069C30.9499 18.6767 32.0205 19.7061 33.3411 19.7061ZM33.3411 38.0994C34.6617 38.0994 35.7322 37.0701 35.7322 35.8003C35.7322 34.5305 34.6617 33.5011 33.3411 33.5011C32.0205 33.5011 30.9499 34.5305 30.9499 35.8003C30.9499 37.0701 32.0205 38.0994 33.3411 38.0994ZM16.6031 26.6036C16.6031 27.8734 15.5326 28.9027 14.212 28.9027C12.8914 28.9027 11.8208 27.8734 11.8208 26.6036C11.8208 25.3338 12.8914 24.3044 14.212 24.3044C15.5326 24.3044 16.6031 25.3338 16.6031 26.6036Z" fill="white"/>
</svg>
