<svg width="44" height="44" viewBox="0 0 44 44" fill="none" xmlns="http://www.w3.org/2000/svg">
<g clip-path="url(#clip0_1_975)">
<path d="M40.4087 0.744446H3.75916C2.00354 0.744446 0.583923 2.13046 0.583923 3.84408V40.6449C0.583923 42.3585 2.00354 43.7529 3.75916 43.7529H40.4087C42.1644 43.7529 43.5924 42.3585 43.5924 40.6533V3.84408C43.5924 2.13046 42.1644 0.744446 40.4087 0.744446ZM13.3437 37.394H6.95959V16.8642H13.3437V37.394ZM10.1516 14.067C8.102 14.067 6.44719 12.4122 6.44719 10.3709C6.44719 8.32973 8.102 6.67491 10.1516 6.67491C12.1928 6.67491 13.8477 8.32973 13.8477 10.3709C13.8477 12.4038 12.1928 14.067 10.1516 14.067ZM37.2335 37.394H30.8578V27.4147C30.8578 25.0375 30.8158 21.9715 27.5398 21.9715C24.2218 21.9715 23.7178 24.5671 23.7178 27.2467V37.394H17.3505V16.8642H23.4658V19.6698H23.5498C24.3982 18.057 26.4814 16.3518 29.581 16.3518C36.0407 16.3518 37.2335 20.6023 37.2335 26.1295V37.394Z" fill="white"/>
</g>
<defs>
<clipPath id="clip0_1_975">
<rect width="43.0085" height="43.0085" fill="white" transform="translate(0.583923 0.744446)"/>
</clipPath>
</defs>
</svg>
