<svg width="443" height="690" viewBox="0 0 443 690" fill="none" xmlns="http://www.w3.org/2000/svg">
    <path opacity="0.5" d="M228.961 341.391L0.0886936 196.472V302.52L228.961 447.439L442.911 298.698V192.65L228.961 341.391Z" stroke="#3FA247" stroke-miterlimit="10" />
    <path opacity="0.75" d="M228.961 462.617L0.0886936 317.698V423.746L228.961 568.665L442.911 419.931V313.883L228.961 462.617Z" stroke="#3FA247" stroke-miterlimit="10" />
    <path d="M228.961 583.85L0.0886936 438.931V544.979L228.961 689.898L442.911 541.164V435.109L228.961 583.85Z" stroke="#3FA247" stroke-miterlimit="10" />
    <path opacity="0.2" d="M228.961 221.473L0.0886936 76.5543V182.602L228.961 327.521L442.911 178.78V72.7325L228.961 221.473Z" stroke="#3FA247" stroke-miterlimit="10" />
    <path opacity="0.1" d="M228.961 102.898L0.0886936 -42.0216V64.0195L228.961 208.939L442.911 60.1978V-45.8365L228.961 102.898Z" stroke="#3FA247" stroke-miterlimit="10" />
</svg>
