<svg width="49" height="50" viewBox="0 0 49 50" fill="none" xmlns="http://www.w3.org/2000/svg">
<rect x="0.5" y="0.5" width="47.5585" height="48.6621" rx="23.7793" stroke="white" stroke-linejoin="round"/>
<path d="M24.5 39C16.4919 39 10 32.5081 10 24.5C10 16.4919 16.4919 10 24.5 10C32.5081 10 39 16.4919 39 24.5C39 32.5081 32.5081 39 24.5 39ZM21.1795 35.6177C19.7838 32.6576 18.9281 29.3926 18.7396 25.95H12.9897C13.5641 30.5559 16.8388 34.3233 21.1795 35.6177ZM21.6445 25.95C21.8626 29.4863 22.8728 32.8081 24.5 35.7404C26.1272 32.8081 27.1374 29.4863 27.3555 25.95H21.6445ZM36.0102 25.95H30.2604C30.0719 29.3926 29.2163 32.6576 27.8205 35.6177C32.1612 34.3233 35.4359 30.5559 36.0102 25.95ZM12.9897 23.05H18.7396C18.9281 19.6074 19.7838 16.3424 21.1795 13.3822C16.8388 14.6767 13.5641 18.4441 12.9897 23.05ZM21.6445 23.05H27.3555C27.1374 19.5138 26.1272 16.1919 24.5 13.2596C22.8728 16.1919 21.8626 19.5138 21.6445 23.05ZM27.8205 13.3822C29.2163 16.3424 30.0719 19.6074 30.2604 23.05H36.0102C35.4359 18.4441 32.1612 14.6767 27.8205 13.3822Z" fill="white"/>
</svg>
