<svg width="44" height="44" viewBox="0 0 44 44" fill="none" xmlns="http://www.w3.org/2000/svg">
<path d="M0.566986 43.7529L3.59012 32.7087C1.72463 29.4759 0.744396 25.8112 0.746188 22.0533C0.751564 10.3049 10.312 0.744446 22.0586 0.744446C27.759 0.746238 33.11 2.96655 37.1348 6.99501C41.1579 11.0235 43.3728 16.378 43.3711 22.0731C43.3657 33.8233 33.8053 43.3837 22.0586 43.3837C18.4925 43.382 14.9784 42.4877 11.8656 40.7889L0.566986 43.7529ZM12.3889 36.9307C15.3923 38.7137 18.2595 39.7818 22.0515 39.7836C31.8143 39.7836 39.7673 31.8378 39.7727 22.0695C39.7763 12.2815 31.8609 4.3464 22.0658 4.34282C12.2957 4.34282 4.34814 12.2886 4.34455 22.0551C4.34276 26.0424 5.51116 29.0279 7.47341 32.1514L5.68319 38.6887L12.3889 36.9307ZM32.7946 27.1391C32.662 26.9169 32.3072 26.7843 31.7731 26.5173C31.2409 26.2502 28.6228 24.9618 28.1335 24.7844C27.6461 24.607 27.2913 24.5174 26.9347 25.0514C26.5799 25.5836 25.5584 26.7843 25.2484 27.1391C24.9384 27.4939 24.6266 27.5387 24.0943 27.2717C23.5621 27.0047 21.8454 26.4438 19.8114 24.6285C18.2291 23.2164 17.1593 21.4727 16.8492 20.9387C16.5392 20.4065 16.817 20.118 17.0822 19.8527C17.3223 19.6144 17.6144 19.2309 17.8814 18.9191C18.152 18.6109 18.2398 18.3887 18.419 18.0321C18.5964 17.6772 18.5086 17.3654 18.3742 17.0984C18.2398 16.8332 17.1754 14.2115 16.7328 13.1452C16.2991 12.1076 15.86 12.2474 15.5339 12.2313L14.5124 12.2134C14.1576 12.2134 13.5806 12.346 13.0932 12.88C12.6057 13.414 11.2295 14.7007 11.2295 17.3224C11.2295 19.9441 13.138 22.4763 13.4032 22.8311C13.6702 23.1859 17.1575 28.5655 22.4995 30.8719C23.77 31.4202 24.7628 31.7482 25.5351 31.9937C26.811 32.3987 27.9723 32.3413 28.8898 32.2051C29.913 32.0528 32.0401 30.9167 32.4846 29.673C32.929 28.4276 32.929 27.3613 32.7946 27.1391Z" fill="white"/>
</svg>
